<?xml version="1.0" standalone="no"?>
<!DOCTYPE svg PUBLIC "-//W3C//DTD SVG 20010904//EN"
 "http://www.w3.org/TR/2001/REC-SVG-20010904/DTD/svg10.dtd">
<svg version="1.0" xmlns="http://www.w3.org/2000/svg"
 width="1000.000000pt" height="1000.000000pt" viewBox="0 0 1000.000000 1000.000000"
 preserveAspectRatio="xMidYMid meet">
<metadata>
Created by potrace 1.14, written by Peter Selinger 2001-2017
</metadata>
<g transform="translate(0.000000,1000.000000) scale(0.100000,-0.100000)"
fill="#000000" stroke="none">
<path d="M4530 9665 c-10 -12 -16 -13 -26 -4 -11 9 -14 8 -14 -4 0 -10 7 -15
19 -12 11 2 22 -3 25 -11 4 -11 2 -12 -13 -5 -10 6 -21 8 -24 4 -4 -3 -14 0
-23 8 -16 13 -16 12 -5 -9 6 -12 8 -22 4 -21 -4 1 -16 1 -27 0 -15 -1 -16 -4
-6 -16 8 -10 9 -15 1 -15 -6 0 -13 11 -17 24 -4 17 -11 23 -21 19 -12 -5 -12
-7 -1 -14 11 -7 11 -9 -1 -9 -9 0 -11 -8 -6 -27 l7 -28 -27 30 c-15 17 -24 24
-21 18 5 -9 2 -11 -8 -7 -9 3 -13 11 -9 18 3 6 1 6 -8 -1 -7 -7 -17 -13 -22
-13 -4 0 -5 6 -1 13 6 9 5 9 -8 0 -8 -7 -19 -9 -23 -5 -5 4 -4 1 0 -7 6 -11 4
-13 -9 -8 -10 4 -15 3 -11 -3 9 -15 -11 -12 -24 3 -6 8 -7 18 -3 22 4 5 1 5
-6 1 -10 -6 -10 -11 -1 -22 7 -9 8 -14 1 -14 -6 0 -14 5 -17 10 -3 6 -11 10
-16 10 -6 0 -3 -7 5 -16 20 -19 20 -21 1 -21 -8 0 -12 4 -9 9 3 4 -4 8 -15 8
-10 0 -22 6 -24 13 -4 7 -6 8 -6 1 -1 -6 6 -17 14 -24 17 -14 20 -30 4 -30 -5
0 -8 4 -5 9 3 5 -1 12 -10 15 -8 3 -12 2 -9 -3 3 -5 0 -13 -6 -17 -8 -5 -9 -3
-4 6 6 9 4 12 -7 8 -8 -4 -21 -2 -29 4 -11 8 -11 9 3 5 9 -3 22 1 28 9 9 10 9
14 1 14 -6 0 -11 -4 -11 -10 0 -6 -9 -6 -23 -1 -18 7 -23 6 -23 -9 0 -10 3
-17 7 -14 11 7 31 -24 23 -37 -5 -9 -10 -9 -18 2 -6 8 -20 21 -31 29 -18 14
-19 13 -8 -1 7 -9 9 -20 5 -24 -4 -5 0 -5 8 -1 8 4 5 -1 -8 -11 -15 -13 -21
-25 -16 -36 6 -15 2 -17 -27 -12 -33 6 -33 5 -14 -10 11 -9 14 -14 8 -10 -7 3
-13 0 -13 -7 -1 -8 -6 -6 -15 6 -14 19 -15 19 -16 -7 -2 -40 -3 -45 -13 -54
-5 -4 -6 -3 -2 4 3 6 1 15 -6 20 -20 12 -38 12 -38 1 0 -6 6 -8 14 -5 11 4 11
1 2 -18 l-11 -23 -11 26 c-6 15 -9 31 -6 36 3 5 0 6 -6 2 -9 -5 -9 -13 -1 -27
13 -24 -3 -49 -32 -49 -13 0 -17 -5 -13 -17 4 -11 2 -14 -3 -8 -10 13 -56 17
-48 5 3 -5 1 -11 -4 -14 -5 -4 -13 -1 -17 5 -5 8 -3 9 6 4 9 -6 11 -4 5 5 -6
10 -11 9 -21 -5 -7 -10 -11 -22 -8 -26 3 -5 -3 -6 -12 -2 -13 5 -15 3 -9 -8 5
-8 0 -7 -12 4 -11 10 -27 15 -37 11 -20 -8 -21 -21 -1 -21 8 0 11 5 8 10 -3 6
-1 7 6 3 9 -6 9 -11 0 -22 -6 -7 -14 -12 -18 -10 -3 2 -15 -2 -26 -10 -15 -11
-16 -14 -3 -14 19 0 31 -27 16 -36 -6 -4 -8 -3 -4 4 3 6 2 13 -4 17 -9 5 -14
-7 -11 -27 0 -4 -6 -5 -14 -2 -8 4 -12 11 -8 17 3 6 1 7 -6 3 -9 -6 -9 -11 -1
-21 8 -10 8 -15 -1 -21 -8 -4 -9 -3 -5 4 4 7 2 12 -3 12 -6 0 -11 -5 -11 -11
0 -5 -4 -8 -9 -5 -4 3 -16 -3 -26 -14 -10 -11 -23 -17 -29 -13 -6 3 -5 0 2 -8
18 -20 15 -32 -9 -26 -17 5 -18 3 -7 -11 11 -13 11 -15 -4 -9 -14 5 -16 2 -9
-16 10 -27 4 -47 -14 -47 -14 0 -25 -21 -25 -47 0 -21 11 -11 14 13 2 10 8 20
15 22 10 3 10 0 2 -17 -7 -12 -9 -27 -5 -33 4 -6 3 -8 -3 -5 -5 3 -22 -3 -39
-14 -28 -20 -28 -20 -4 -15 14 3 19 3 13 0 -7 -3 -13 -13 -14 -22 0 -11 -2
-12 -6 -4 -2 6 -11 12 -19 12 -8 0 -14 5 -14 12 0 6 -3 8 -7 4 -5 -4 0 -13 9
-20 18 -13 21 -56 3 -53 -5 1 -9 -4 -8 -10 2 -7 -2 -13 -7 -13 -6 0 -10 -7
-10 -16 0 -9 -5 -12 -12 -8 -10 6 -10 4 0 -7 6 -7 12 -18 12 -23 0 -6 -5 -4
-10 4 -7 11 -10 11 -10 2 0 -10 -5 -10 -20 -2 -14 7 -20 7 -20 0 0 -5 6 -10
14 -10 24 0 29 -20 10 -35 -11 -7 -16 -17 -11 -21 4 -4 7 -2 7 4 0 7 5 12 10
12 7 0 7 -7 0 -21 -7 -11 -9 -27 -6 -35 3 -8 2 -12 -3 -9 -5 3 -12 1 -16 -5
-3 -5 -1 -10 6 -10 7 0 4 -7 -7 -15 -17 -14 -17 -14 -1 -9 15 5 13 1 -6 -20
-15 -16 -24 -36 -22 -47 2 -11 0 -17 -6 -14 -5 4 -9 -4 -9 -17 0 -13 -5 -29
-12 -36 -8 -8 -9 -12 -1 -12 6 0 10 -8 8 -17 -1 -10 -9 -17 -16 -15 -9 1 -8
-3 4 -11 17 -14 24 -33 8 -23 -4 3 -7 -10 -5 -29 1 -20 -2 -33 -8 -32 -6 1
-13 -4 -16 -12 -2 -8 0 -11 5 -8 5 3 10 0 10 -8 0 -8 -4 -12 -9 -9 -4 3 -8 -4
-8 -15 0 -11 -4 -22 -8 -25 -10 -6 -9 -36 1 -53 4 -6 2 -15 -4 -19 -8 -4 -7
-9 2 -15 10 -6 10 -9 2 -9 -6 0 -10 -9 -8 -20 2 -11 -1 -20 -6 -20 -6 0 -7 -4
-4 -10 3 -5 1 -10 -6 -10 -7 0 -9 -3 -6 -6 4 -4 12 -2 20 4 10 8 13 6 13 -8 0
-10 -3 -17 -7 -14 -4 2 -10 -3 -13 -12 -3 -8 -2 -13 3 -10 10 7 23 -19 14 -28
-4 -3 -11 -1 -18 4 -8 7 -12 5 -12 -5 0 -8 7 -15 16 -16 12 0 11 -3 -4 -9 -11
-5 -15 -9 -9 -9 18 -1 10 -63 -12 -96 -14 -21 -15 -27 -4 -20 13 8 13 7 1 -9
-13 -15 -13 -19 0 -27 11 -7 10 -9 -5 -9 -13 0 -17 -5 -13 -20 4 -15 0 -20
-14 -20 -24 0 -25 -20 -1 -21 14 0 14 -2 -3 -9 -11 -5 -15 -9 -9 -9 6 -1 11
-8 11 -16 0 -11 -4 -12 -14 -3 -11 8 -12 7 -7 -6 3 -9 10 -16 15 -16 5 0 9 -5
9 -11 0 -5 -6 -7 -12 -3 -7 4 -4 -3 7 -16 11 -13 15 -20 8 -17 -6 4 -14 3 -18
-3 -3 -5 -1 -10 6 -10 7 0 5 -6 -6 -13 -13 -10 -15 -16 -6 -21 6 -4 9 -12 6
-17 -4 -5 -1 -9 4 -9 6 0 11 -7 11 -16 0 -8 -5 -12 -11 -8 -6 3 -3 -6 7 -22
11 -15 14 -25 8 -21 -7 4 -14 0 -18 -8 -3 -8 3 -19 12 -24 12 -7 13 -10 3 -11
-10 0 -11 -3 -2 -13 6 -8 8 -17 4 -21 -4 -4 -8 -22 -8 -39 -1 -18 -5 -39 -10
-46 -5 -10 -4 -12 3 -7 7 4 12 1 12 -8 0 -9 -4 -16 -8 -16 -4 0 -8 -9 -8 -19
0 -11 3 -18 6 -16 3 2 12 -6 19 -17 11 -18 11 -20 -4 -14 -15 5 -16 4 -5 -9
10 -12 10 -15 -1 -15 -11 0 -11 -2 1 -9 8 -6 18 -7 24 -4 5 3 6 1 2 -6 -4 -6
-13 -8 -19 -4 -8 4 -7 1 1 -9 10 -13 10 -18 1 -24 -9 -5 -7 -11 6 -21 18 -13
18 -13 -1 -13 -10 0 -15 -4 -9 -8 25 -18 36 -40 24 -48 -8 -4 -9 -3 -5 4 4 7
3 12 -3 12 -5 0 -9 -9 -8 -19 0 -10 7 -17 13 -14 16 6 15 -36 0 -56 -8 -11 -8
-13 2 -7 6 4 12 2 12 -3 0 -6 -6 -11 -12 -11 -9 0 -8 -4 2 -10 13 -9 13 -10 0
-11 -10 0 -9 -3 4 -8 11 -4 20 -17 21 -29 1 -18 -1 -20 -13 -9 -11 9 -11 3 3
-23 15 -29 15 -33 2 -22 -13 11 -15 10 -10 -7 3 -12 10 -21 17 -21 6 0 4 -5
-4 -10 -9 -6 -11 -13 -5 -17 6 -5 11 -14 13 -22 2 -11 0 -12 -11 -3 -11 9 -13
6 -9 -18 3 -18 9 -28 16 -24 6 3 3 -1 -6 -9 -14 -11 -15 -16 -5 -27 9 -10 9
-11 0 -6 -7 4 -13 3 -13 -1 0 -5 6 -15 13 -22 10 -11 9 -12 -1 -7 -10 6 -11 1
-6 -18 3 -13 2 -31 -2 -38 -5 -7 -10 -22 -11 -33 -3 -16 -1 -17 7 -5 5 8 10
11 10 7 0 -4 -8 -20 -17 -35 -15 -23 -15 -25 -2 -14 14 11 16 9 13 -15 -1 -15
-8 -29 -13 -31 -19 -6 -12 -22 7 -16 9 3 6 -2 -8 -10 -19 -12 -21 -15 -8 -16
11 0 15 -5 12 -15 -4 -8 -11 -12 -18 -8 -6 4 -4 -2 4 -12 8 -10 10 -16 4 -12
-7 4 -14 -1 -17 -13 -3 -10 0 -21 7 -24 7 -3 8 -7 1 -13 -14 -12 -17 -103 -3
-103 7 0 3 -7 -8 -15 -10 -8 -13 -15 -7 -15 9 0 10 -7 4 -23 -5 -13 -5 -30 0
-39 6 -11 5 -19 -1 -23 -13 -8 -13 -25 1 -25 5 0 7 5 3 12 -5 7 -3 8 5 4 9 -6
9 -12 -2 -24 -20 -24 -11 -47 11 -30 15 11 15 11 4 -3 -7 -9 -14 -50 -16 -92
-2 -41 -7 -80 -11 -88 -5 -7 -4 -14 3 -17 7 -2 12 -10 12 -18 0 -9 -4 -13 -9
-10 -10 6 -9 -19 1 -29 3 -3 4 -20 2 -37 -2 -17 2 -38 9 -47 10 -14 10 -14 -3
-4 -13 10 -16 8 -16 -10 0 -12 5 -25 10 -29 7 -5 7 -8 -1 -8 -7 0 -13 -7 -13
-15 0 -8 -4 -15 -10 -15 -5 0 -10 -5 -10 -11 0 -8 5 -7 15 1 9 7 19 10 23 6 4
-4 -4 -16 -18 -27 -19 -15 -20 -18 -4 -10 19 9 20 7 20 -34 -1 -24 -5 -41 -9
-38 -5 3 -4 -4 2 -16 10 -18 8 -27 -10 -53 -13 -17 -18 -29 -12 -25 6 4 13 4
16 0 2 -5 2 -2 1 5 -5 19 4 14 17 -9 8 -15 8 -19 0 -15 -6 4 -11 0 -11 -9 0
-10 5 -13 13 -9 6 4 9 4 5 -1 -4 -4 -3 -14 3 -21 7 -9 4 -18 -13 -35 -13 -12
-18 -19 -12 -16 7 4 14 -2 17 -13 3 -11 1 -18 -4 -14 -5 3 -9 1 -9 -5 0 -5 5
-13 11 -16 7 -5 4 -14 -8 -28 -10 -11 -12 -17 -5 -13 6 4 12 2 12 -4 0 -6 -10
-15 -22 -21 -21 -9 -21 -9 4 -4 29 6 49 -12 24 -21 -9 -3 -16 -10 -16 -16 0
-5 5 -6 10 -3 6 3 10 1 10 -5 0 -6 5 -8 12 -4 7 4 8 3 4 -4 -4 -6 -13 -9 -20
-6 -8 3 -17 0 -22 -7 -4 -7 -3 -10 2 -6 15 9 40 -16 40 -40 0 -18 -3 -20 -15
-10 -12 10 -13 9 -6 -3 12 -19 15 -81 4 -74 -5 3 -9 0 -9 -6 0 -6 -5 -8 -12
-4 -7 4 -8 3 -4 -4 4 -7 15 -12 24 -13 11 0 12 -3 5 -6 -20 -7 -15 -23 5 -17
16 5 15 5 -1 -6 -12 -8 -16 -18 -12 -31 4 -11 1 -27 -6 -35 -6 -8 -9 -17 -5
-21 3 -3 6 -1 6 6 0 7 5 9 10 6 8 -5 7 -11 -1 -21 -6 -8 -7 -14 -3 -14 5 0 14
-16 20 -35 6 -19 8 -32 5 -30 -4 2 -7 -5 -7 -15 0 -10 5 -16 10 -13 5 4 7 -1
3 -9 -3 -9 1 -28 9 -43 8 -15 12 -30 9 -33 -3 -3 -5 0 -5 6 0 7 -5 12 -11 12
-7 0 -5 -9 4 -24 12 -18 13 -26 4 -36 -9 -10 -9 -11 1 -6 16 9 16 -6 0 -23 -7
-7 -8 -12 -3 -11 6 2 16 2 24 1 11 -1 11 -4 0 -18 -12 -14 -12 -15 0 -9 10 7
12 3 6 -14 -4 -13 -3 -20 2 -17 5 3 15 -4 23 -16 12 -20 12 -21 -4 -8 -14 12
-16 12 -10 -2 3 -8 13 -18 22 -22 15 -6 15 -8 -2 -21 -15 -10 -16 -14 -5 -14
8 0 21 6 29 13 12 10 12 9 2 -4 -6 -9 -9 -19 -5 -23 4 -4 9 -19 11 -34 2 -14
9 -33 15 -41 10 -12 9 -13 -3 -7 -8 4 -4 -2 10 -14 14 -13 24 -29 22 -36 -2
-8 2 -14 8 -14 6 0 10 -8 8 -17 -2 -12 3 -18 15 -17 14 2 15 -1 6 -12 -9 -11
-8 -19 6 -34 16 -18 14 -25 -8 -21 -5 1 -6 -3 -2 -9 3 -6 11 -8 16 -5 5 4 9
-1 9 -10 0 -8 11 -20 24 -27 14 -6 32 -28 40 -49 9 -22 20 -39 26 -39 5 0 9
-3 9 -7 -4 -22 2 -33 14 -27 9 5 9 4 0 -6 -8 -9 -9 -19 -2 -32 5 -10 7 -23 4
-28 -3 -5 3 -13 12 -19 14 -8 15 -10 3 -11 -13 0 -13 -2 0 -9 8 -6 18 -7 22
-5 4 3 9 0 9 -5 1 -6 2 -17 3 -23 1 -7 8 -12 17 -10 9 1 16 -4 16 -13 0 -8 -4
-12 -9 -9 -4 3 -8 0 -8 -7 0 -6 8 -9 20 -6 10 3 19 2 18 -2 -3 -25 5 -41 20
-41 10 0 13 -3 7 -8 -6 -4 -10 -14 -10 -22 1 -8 -2 -19 -5 -25 -11 -17 -6 -38
10 -42 13 -4 13 -3 0 6 -8 6 -10 11 -4 11 20 0 23 -12 8 -34 -8 -13 -12 -25
-9 -28 9 -9 13 -118 4 -112 -12 7 2 -29 15 -38 7 -5 7 -8 -1 -8 -13 0 -13 -34
0 -46 3 -3 -1 -17 -10 -30 -8 -13 -11 -24 -7 -24 5 0 9 -13 9 -30 0 -16 -2
-30 -5 -30 -3 0 -4 -21 -4 -47 1 -27 -3 -56 -8 -67 -7 -13 -6 -21 2 -26 9 -6
9 -9 0 -15 -6 -4 -9 -13 -6 -21 3 -8 0 -14 -6 -14 -6 0 -6 -6 3 -18 7 -9 9
-14 5 -10 -5 4 -15 3 -23 -3 -10 -9 -17 -8 -30 2 -10 7 -15 10 -11 5 9 -11
-16 -36 -38 -36 -9 0 -23 -8 -30 -17 -12 -16 -13 -16 -9 6 2 13 1 20 -3 17 -4
-4 -8 -12 -8 -17 -1 -5 -2 -14 -3 -19 -1 -12 -23 -9 -34 5 -5 6 -7 1 -4 -12 3
-15 1 -20 -8 -17 -7 3 -16 0 -20 -6 -4 -6 -15 -8 -26 -5 -12 4 -19 2 -19 -7 0
-10 -3 -9 -10 2 -8 12 -10 12 -10 1 0 -8 -3 -11 -7 -8 -3 4 -12 2 -20 -4 -7
-6 -13 -8 -13 -3 0 4 -12 -3 -27 -17 -14 -13 -23 -19 -19 -12 3 6 2 15 -4 18
-6 4 -10 3 -9 -2 4 -21 -2 -34 -13 -27 -8 5 -9 2 -5 -10 4 -10 3 -15 -3 -11
-6 3 -10 1 -10 -5 0 -6 -4 -8 -10 -5 -5 3 -12 -5 -16 -19 -3 -14 -11 -24 -18
-23 -6 1 -10 -4 -8 -12 3 -12 1 -12 -14 0 -12 9 -15 9 -10 2 4 -7 2 -13 -3
-13 -20 0 -26 -3 -38 -19 -7 -9 -13 -12 -13 -8 0 5 -7 1 -16 -7 -8 -9 -19 -14
-24 -11 -5 3 -11 1 -15 -5 -3 -5 -23 -17 -43 -27 -20 -9 -40 -22 -44 -27 -4
-6 -8 -7 -8 -2 0 6 -7 1 -16 -10 -8 -10 -13 -12 -9 -4 5 12 4 12 -7 -1 -7 -9
-19 -14 -25 -12 -7 3 -13 -1 -13 -7 0 -7 -7 -10 -15 -6 -9 3 -15 0 -15 -9 0
-8 -9 -15 -19 -15 -11 0 -23 -5 -26 -10 -4 -6 -12 -7 -18 -3 -7 4 -5 -2 3 -12
14 -17 14 -18 -4 -8 -14 8 -24 5 -44 -14 -17 -15 -32 -21 -46 -18 -17 5 -18 4
-6 -4 14 -10 7 -15 -13 -12 -4 1 -10 -6 -13 -14 -4 -8 -10 -15 -16 -15 -5 0
-6 6 -3 13 4 6 0 4 -8 -5 -8 -10 -19 -18 -26 -18 -6 0 -11 -4 -11 -10 0 -5 -9
-10 -21 -10 -11 0 -17 -4 -14 -10 5 -9 -15 -15 -37 -11 -5 0 -8 -6 -8 -14 0
-8 -9 -15 -20 -15 -11 0 -20 -4 -20 -10 0 -5 -7 -10 -16 -10 -8 0 -12 -5 -9
-10 4 -6 -7 -13 -24 -16 -17 -4 -28 -10 -26 -14 5 -7 -31 -24 -45 -22 -3 0 -9
-6 -13 -14 -5 -8 -13 -11 -19 -8 -7 5 -8 2 -4 -5 5 -8 0 -14 -13 -18 -12 -3
-18 -10 -14 -17 3 -6 2 -8 -2 -3 -5 4 -17 -1 -28 -10 -15 -13 -19 -14 -13 -3
4 9 2 8 -7 -2 -8 -10 -20 -18 -26 -18 -7 0 -9 -5 -5 -12 5 -8 2 -9 -10 -5 -10
4 -19 1 -23 -8 -4 -12 -8 -13 -19 -4 -12 10 -13 8 -8 -6 5 -12 4 -16 -3 -12
-6 4 -13 0 -17 -8 -3 -8 -13 -15 -21 -15 -10 0 -13 -5 -9 -12 5 -8 0 -7 -11 2
-10 8 -16 11 -13 5 3 -5 0 -15 -7 -22 -11 -10 -15 -10 -18 0 -3 7 -6 4 -6 -6
-1 -10 -5 -15 -11 -12 -5 3 -10 1 -10 -6 0 -8 -5 -7 -17 2 -15 13 -15 12 -5
-7 10 -19 9 -21 -13 -18 -14 1 -25 -2 -25 -7 0 -6 -4 -7 -10 -4 -5 3 -17 -3
-27 -14 -9 -11 -21 -17 -26 -14 -6 4 -8 0 -4 -10 4 -12 2 -14 -10 -10 -12 5
-14 3 -8 -7 5 -8 4 -11 -3 -7 -13 9 -44 -2 -37 -13 3 -4 -2 -11 -11 -14 -10
-4 -13 -2 -9 7 4 6 -1 3 -10 -8 -9 -11 -19 -19 -23 -19 -4 1 -5 -3 -4 -10 2
-6 0 -8 -4 -4 -4 4 -14 2 -22 -5 -13 -10 -14 -9 -7 3 4 8 -3 3 -18 -13 -14
-15 -31 -27 -37 -27 -6 0 -8 -6 -4 -12 5 -9 2 -9 -9 1 -12 9 -17 10 -17 2 0
-6 -8 -15 -17 -18 -10 -4 -24 -14 -31 -22 -8 -9 -11 -11 -8 -4 4 6 2 14 -4 18
-5 3 -10 -1 -10 -9 0 -9 -5 -16 -11 -16 -5 0 -8 -4 -4 -9 3 -6 -4 -8 -15 -6
-12 2 -23 -2 -27 -11 -4 -11 -8 -12 -19 -3 -12 10 -13 8 -8 -7 4 -10 4 -16 -1
-12 -4 4 -14 0 -22 -10 -9 -10 -11 -11 -7 -2 7 13 6 13 -12 0 -10 -8 -29 -23
-41 -34 -15 -13 -23 -15 -23 -7 0 7 -9 3 -21 -10 -11 -13 -18 -17 -14 -9 4 8
-3 4 -14 -10 -11 -14 -21 -19 -21 -12 0 7 -5 10 -10 7 -6 -4 -7 -11 -4 -17 5
-7 -2 -9 -20 -6 -22 4 -24 3 -14 -9 6 -8 7 -13 2 -12 -18 4 -44 -13 -37 -25 4
-6 -2 -4 -12 4 -17 14 -18 13 -12 -3 4 -12 3 -16 -4 -11 -13 8 -60 -16 -53
-27 3 -5 -3 -6 -12 -2 -12 4 -15 3 -10 -5 5 -8 2 -10 -8 -6 -9 3 -16 2 -16 -3
0 -4 -9 -14 -21 -21 -17 -11 -20 -11 -13 0 6 10 5 11 -8 1 -8 -7 -19 -9 -23
-5 -5 4 -5 2 -2 -4 4 -7 -1 -18 -10 -25 -12 -10 -14 -10 -9 -1 10 17 -2 15
-21 -3 -8 -8 -19 -12 -25 -9 -6 4 -8 2 -5 -3 10 -16 -25 -26 -35 -11 -6 9 -8
7 -6 -7 2 -15 -2 -20 -19 -19 -13 1 -21 -1 -19 -5 2 -3 -2 -12 -10 -19 -11
-10 -14 -10 -14 0 0 8 -4 7 -12 -3 -7 -8 -22 -22 -32 -29 -18 -13 -19 -13 -12
0 5 9 2 8 -7 -2 -11 -14 -16 -15 -26 -5 -7 7 -12 8 -11 2 4 -19 0 -38 -7 -32
-3 4 -12 2 -20 -5 -11 -9 -12 -7 -8 8 5 13 2 12 -7 -4 -8 -12 -17 -19 -21 -16
-4 4 -7 2 -7 -4 0 -7 -9 -12 -21 -12 -11 0 -17 -4 -14 -10 3 -5 1 -10 -6 -10
-7 0 -10 -3 -6 -6 3 -4 -1 -13 -9 -21 -8 -8 -11 -20 -7 -26 3 -7 3 -9 -2 -5
-11 10 -33 -15 -41 -46 -3 -14 -10 -24 -14 -21 -5 3 -19 -13 -33 -35 -13 -22
-27 -37 -30 -33 -4 3 -7 -2 -7 -13 0 -21 -58 -91 -73 -86 -4 1 -6 -2 -3 -7 7
-11 -4 -42 -13 -37 -3 2 -15 -3 -26 -11 -20 -16 -20 -16 0 -9 14 4 10 -2 -12
-23 -33 -29 -44 -49 -21 -35 8 4 10 3 5 -2 -5 -5 -14 -9 -20 -9 -7 -1 -11 -6
-9 -13 1 -7 -5 -15 -14 -19 -8 -3 -20 -17 -25 -30 -6 -16 -13 -22 -21 -17 -10
6 -10 4 0 -8 10 -13 10 -17 -3 -22 -9 -3 -13 -11 -9 -17 4 -8 3 -9 -4 -5 -7 4
-12 2 -12 -4 0 -6 -4 -8 -10 -5 -6 3 -7 -1 -4 -9 3 -9 1 -16 -5 -16 -5 0 -15
-10 -21 -23 -11 -21 -10 -21 4 -3 9 11 16 15 16 8 0 -6 -11 -19 -24 -28 -15
-9 -23 -21 -19 -30 3 -9 0 -14 -8 -12 -8 2 -13 -4 -13 -14 1 -10 -2 -18 -8
-18 -5 0 -6 -4 -3 -10 3 -5 0 -10 -8 -10 -8 0 -14 -8 -13 -17 0 -10 -5 -17
-12 -15 -8 1 -11 -2 -7 -8 4 -6 1 -17 -5 -25 -7 -8 -9 -15 -4 -15 5 0 1 -5 -9
-11 -9 -6 -15 -14 -12 -20 4 -5 1 -9 -4 -9 -6 0 -10 -6 -9 -12 2 -7 -3 -12
-11 -10 -12 3 -12 0 -1 -12 7 -9 8 -16 2 -16 -5 0 -19 -18 -30 -39 -19 -36
-21 -58 -22 -285 l-1 -246 5001 0 5000 0 0 713 c0 690 -1 713 -19 729 -11 9
-22 14 -24 11 -3 -2 -8 5 -12 16 -3 12 -11 18 -17 15 -5 -3 -23 7 -40 22 -17
16 -28 23 -24 16 7 -11 4 -11 -13 -1 -14 10 -17 15 -8 21 9 5 8 8 -4 8 -21 0
-69 23 -69 33 0 5 -4 6 -9 3 -5 -3 -23 8 -41 24 -18 17 -35 30 -40 30 -4 0
-17 9 -30 20 -12 11 -27 17 -31 14 -5 -3 -9 2 -9 10 0 9 -3 16 -7 15 -20 -3
-53 15 -58 32 -4 10 -12 16 -20 12 -8 -3 -18 2 -21 11 -3 9 -11 15 -18 14 -16
-3 -56 24 -56 38 0 7 -8 10 -19 7 -11 -3 -21 2 -24 11 -5 14 -48 37 -67 37 -3
0 -12 7 -21 15 -9 8 -19 11 -22 7 -4 -3 -7 -1 -7 6 0 7 -4 10 -9 7 -5 -4 -11
-1 -13 4 -2 6 -13 12 -25 13 -12 0 -20 4 -18 7 1 3 -9 14 -23 24 -16 12 -23
14 -18 5 4 -8 1 -6 -7 3 -8 10 -17 15 -20 11 -4 -3 -7 0 -7 7 0 7 -3 11 -6 8
-3 -3 -16 5 -30 19 -13 13 -28 22 -33 18 -5 -3 -16 4 -24 15 -7 11 -17 17 -20
13 -4 -3 -7 -1 -7 6 0 7 -4 9 -10 6 -5 -3 -10 -1 -10 5 0 6 -4 9 -8 6 -5 -3
-14 4 -22 14 -8 10 -17 17 -22 14 -4 -3 -8 0 -8 6 0 6 -4 8 -10 5 -5 -3 -10
-1 -10 5 0 6 -5 8 -10 5 -5 -3 -10 -1 -10 5 0 6 -4 8 -10 5 -5 -3 -10 -2 -10
4 0 5 -9 13 -20 16 -11 4 -17 11 -14 17 4 6 2 8 -4 4 -6 -3 -13 -2 -17 4 -4 6
-10 8 -15 5 -5 -3 -15 4 -23 16 -8 11 -21 22 -28 24 -40 9 -58 18 -63 32 -3 8
-10 11 -16 8 -5 -3 -10 -1 -10 5 0 7 -7 9 -16 6 -14 -5 -15 -4 -5 8 10 12 9
14 -6 12 -21 -3 -43 15 -35 29 3 6 -3 3 -13 -5 -17 -14 -18 -13 -12 3 4 10 3
16 -2 12 -6 -3 -14 3 -20 12 -6 11 -11 13 -11 5 0 -10 -3 -10 -14 0 -8 7 -12
15 -11 18 2 3 -5 7 -16 7 -20 2 -81 47 -73 55 2 3 -3 5 -11 6 -8 1 -22 3 -30
4 -8 1 -12 5 -9 10 3 4 0 8 -6 8 -6 0 -8 5 -4 13 6 9 4 9 -8 -1 -13 -10 -17
-10 -22 4 -4 9 -9 14 -12 11 -4 -3 -13 1 -21 9 -8 8 -19 12 -24 9 -5 -4 -9 -1
-9 4 0 6 -9 11 -21 11 -11 0 -17 5 -14 10 3 5 -1 10 -10 10 -9 0 -13 4 -10 10
3 6 -1 7 -9 4 -11 -4 -16 0 -16 11 0 10 -5 13 -12 9 -6 -4 -16 0 -22 8 -11 15
-17 18 -37 18 -5 0 -7 5 -4 10 4 6 3 10 -2 9 -24 -4 -43 3 -43 16 0 8 -5 15
-11 15 -5 0 -7 -4 -4 -10 3 -6 -1 -7 -9 -4 -9 3 -16 10 -16 16 0 5 -4 6 -10 3
-6 -3 -10 -1 -10 5 0 6 -5 8 -10 5 -6 -3 -10 1 -10 9 0 9 -5 16 -11 16 -5 0
-7 -4 -4 -10 3 -6 -1 -7 -9 -4 -9 3 -13 10 -10 15 3 5 -4 9 -15 9 -12 0 -21 5
-21 10 0 6 -9 10 -20 10 -11 0 -20 5 -20 12 0 6 -3 8 -7 5 -3 -4 -12 -2 -20 4
-7 6 -13 8 -13 4 0 -4 -9 3 -20 16 -16 19 -21 21 -29 10 -7 -11 -10 -9 -16 8
-5 15 -10 19 -18 13 -14 -12 -40 11 -29 24 4 5 0 3 -9 -4 -13 -9 -20 -8 -37 8
-12 11 -26 20 -32 20 -6 0 -8 5 -4 12 4 6 3 8 -4 4 -6 -3 -22 5 -36 19 -14 14
-30 25 -35 25 -6 0 -16 9 -23 20 -7 11 -21 20 -31 20 -10 0 -15 5 -12 10 4 6
-5 10 -19 10 -14 0 -26 6 -26 13 0 8 -4 7 -10 -3 -5 -8 -10 -10 -10 -5 0 10
-13 14 -57 17 -7 1 -10 5 -7 10 5 7 -18 12 -38 9 -5 0 -8 6 -8 14 0 9 -6 12
-15 9 -8 -4 -15 -1 -15 5 0 6 -6 8 -14 5 -7 -3 -20 2 -29 10 -12 12 -17 13
-20 3 -3 -7 -6 -5 -6 5 -1 12 -6 15 -18 11 -11 -4 -14 -3 -9 5 4 7 1 12 -9 12
-9 0 -13 5 -9 11 4 8 0 8 -15 0 -17 -10 -21 -9 -21 3 0 8 -5 18 -12 22 -7 4
-8 3 -4 -4 4 -7 -3 -11 -23 -9 -16 1 -27 6 -24 10 3 5 -10 8 -28 7 -19 -1 -37
-1 -41 0 -5 1 -12 3 -17 4 -5 0 -13 4 -17 9 -12 12 -26 8 -18 -5 4 -7 -5 -2
-21 12 l-28 25 12 -25 12 -25 -20 24 c-13 14 -21 18 -21 10 0 -11 -2 -11 -9 1
-6 8 -7 18 -4 24 3 5 1 6 -6 2 -6 -4 -9 -12 -6 -17 3 -5 -1 -6 -9 -3 -9 3 -13
11 -9 17 4 6 0 8 -10 4 -10 -4 -22 1 -30 13 -8 11 -17 17 -20 13 -4 -3 -7 -1
-7 6 0 7 -4 9 -10 6 -6 -3 -10 -1 -10 4 0 6 -7 11 -15 11 -9 0 -18 7 -21 15
-4 8 -10 12 -15 9 -5 -3 -9 3 -10 13 0 10 -3 13 -6 6 -3 -10 -7 -10 -18 0 -7
7 -11 15 -8 19 2 5 -3 8 -11 8 -9 0 -16 5 -16 11 0 5 -4 7 -10 4 -5 -3 -10 1
-10 9 0 9 -5 16 -12 16 -6 0 -9 3 -5 6 3 3 -1 23 -8 44 -10 29 -11 40 -2 44 9
3 9 5 0 5 -7 1 -13 10 -13 20 0 11 -5 23 -10 26 -7 4 -7 13 0 26 6 10 7 19 2
19 -4 0 -8 9 -8 19 0 11 4 17 9 14 5 -3 7 11 4 31 -3 20 -1 34 3 31 18 -11 18
12 0 25 -16 11 -17 17 -7 29 9 12 9 13 0 7 -8 -4 -13 -2 -13 8 0 8 5 18 10 21
8 5 7 11 -1 21 -9 11 -9 17 0 28 9 11 9 15 0 18 -8 3 -9 9 -4 18 13 22 15 61
3 54 -7 -5 -8 -2 -2 7 5 8 9 52 10 99 1 47 3 85 4 85 1 0 3 14 3 30 1 17 6 36
10 43 5 7 4 12 -3 12 -6 0 -9 4 -6 8 11 18 14 62 5 62 -6 0 -3 7 6 16 10 10
13 20 7 26 -12 12 -4 91 10 99 7 4 7 8 -1 10 -8 3 -8 14 -2 37 7 23 6 32 -2
32 -8 0 -8 3 1 9 8 4 11 19 8 34 -3 20 -1 27 12 28 14 0 13 2 -3 9 -11 5 -14
9 -6 9 10 1 11 4 2 14 -6 8 -8 17 -4 21 4 3 8 14 10 24 8 42 14 100 15 140 1
23 5 45 10 48 5 3 3 13 -4 22 -10 12 -10 16 0 19 6 3 12 9 12 14 0 6 -6 7 -12
3 -10 -6 -10 -5 -2 7 13 16 23 99 12 99 -3 0 -5 11 -2 25 3 16 0 25 -8 25 -8
0 -5 5 5 11 9 6 14 15 11 21 -5 8 -1 9 12 3 10 -4 26 -8 34 -9 9 -1 20 -5 26
-9 24 -14 119 -6 161 15 23 11 40 24 38 28 -3 5 2 11 11 14 8 3 13 10 10 15
-3 5 1 12 10 15 10 4 14 12 10 22 -5 12 -2 15 10 10 14 -5 15 -4 4 9 -10 12
-9 16 4 21 9 3 14 10 11 14 -7 11 15 60 27 60 4 0 8 7 8 15 0 8 4 15 9 15 6 0
18 13 27 29 10 17 22 27 28 24 6 -3 8 -3 4 2 -4 4 -2 17 4 29 7 11 11 24 10
29 -1 4 3 7 8 7 6 0 10 9 10 20 0 11 4 20 10 20 5 0 12 16 16 35 3 19 10 35
16 35 5 0 7 4 4 9 -3 5 1 27 8 49 8 22 12 43 9 46 -4 3 -2 6 4 6 5 0 10 14 11
30 3 49 5 60 12 60 3 0 7 14 8 31 1 17 7 40 13 50 5 11 7 19 3 19 -4 0 1 10
12 22 10 12 13 18 7 14 -15 -8 -18 10 -3 19 5 3 7 12 3 20 -3 8 -1 15 3 15 5
0 9 19 10 43 0 23 4 63 8 90 4 31 3 47 -4 47 -6 0 -8 4 -5 10 3 5 1 19 -6 31
-9 17 -8 20 3 13 11 -6 11 -5 -1 9 -7 9 -10 17 -5 17 5 0 3 4 -5 9 -13 8 -13
12 0 27 9 11 9 15 2 10 -12 -6 -18 5 -14 27 0 4 -3 7 -7 7 -9 0 -11 11 -14 62
-1 15 -6 24 -10 22 -4 -3 -6 9 -4 26 2 17 -1 33 -6 36 -4 3 -7 13 -6 22 2 10
-3 16 -10 14 -8 -1 -11 2 -7 8 3 5 1 10 -5 10 -6 0 -8 5 -5 10 3 6 1 10 -5 10
-6 0 -9 4 -6 9 3 5 -1 12 -10 15 -8 3 -12 10 -9 16 3 6 -1 7 -9 4 -9 -3 -16
-1 -16 6 0 6 -4 9 -8 6 -5 -3 -16 4 -25 15 -19 21 -9 26 12 7 11 -10 13 -10 7
0 -4 6 -4 18 1 25 4 6 8 19 8 27 0 8 6 14 14 12 12 -3 12 0 1 12 -7 9 -9 16
-5 16 4 0 2 6 -4 14 -9 10 -8 16 4 26 8 7 15 18 14 24 0 7 -2 6 -6 -1 -11 -28
-21 -11 -10 17 6 17 15 30 19 30 4 0 5 -6 2 -14 -3 -8 -1 -16 4 -20 5 -3 7 5
6 17 -1 12 -3 26 -3 30 -1 5 -5 6 -10 2 -5 -3 -13 -1 -16 5 -4 6 -1 9 6 8 6
-2 14 3 17 11 3 8 0 11 -7 7 -6 -4 -11 -3 -11 3 0 5 6 11 13 14 9 3 9 8 -3 23
-14 18 -13 18 10 -1 14 -11 22 -16 18 -11 -4 5 -2 16 5 24 10 13 9 15 -3 8 -8
-4 -7 -1 3 7 16 13 16 15 2 21 -11 4 -14 2 -9 -6 4 -7 3 -8 -5 -4 -15 10 -5
26 17 27 11 0 12 3 5 6 -14 5 -18 53 -5 53 14 0 11 41 -4 47 -12 4 -12 8 3 20
10 8 12 12 6 8 -8 -4 -13 0 -13 10 0 8 8 19 19 23 15 5 17 12 10 30 -5 14 -14
21 -21 17 -7 -4 -5 0 4 8 14 11 15 16 5 27 -8 8 -8 11 -1 7 7 -4 15 0 18 9 9
23 7 31 -3 15 -6 -10 -9 4 -7 40 1 42 6 55 19 57 9 2 17 11 17 20 0 15 -2 15
-10 2 -8 -13 -10 -13 -10 1 0 20 24 31 38 17 6 -6 12 -6 17 3 5 8 4 10 -3 5
-7 -4 -17 3 -23 18 -7 14 -17 22 -23 19 -8 -5 -8 -3 0 8 16 22 35 71 25 65 -5
-3 -14 0 -20 8 -9 11 -8 14 6 12 12 -1 18 6 17 20 0 13 6 21 15 20 11 -1 16 7
16 24 -1 14 5 30 12 35 10 7 7 10 -13 12 -20 1 -24 -1 -13 -9 12 -8 12 -9 -1
-5 -19 5 -26 37 -7 37 7 0 14 7 14 15 0 10 -4 12 -12 5 -8 -7 -11 -3 -11 13 1
12 7 26 14 30 7 5 10 13 7 18 -4 5 -11 6 -17 3 -6 -4 -6 1 1 14 8 14 8 23 1
27 -7 4 -7 12 -2 18 5 7 8 27 7 45 -2 24 2 32 11 28 8 -3 11 0 8 8 -3 7 0 25
6 41 12 30 4 48 -10 25 -7 -11 -9 -10 -7 7 0 12 6 19 12 17 5 -3 1 2 -9 10
-18 15 -18 16 -2 16 9 0 14 5 11 10 -4 6 -11 8 -16 5 -5 -4 -9 6 -9 22 0 22
-2 25 -10 13 -5 -8 -10 -10 -10 -4 0 6 3 14 7 18 12 12 10 46 -3 44 -13 -3
-14 0 -14 25 0 9 3 8 9 -2 6 -9 11 -10 15 -2 4 6 3 11 -3 11 -13 0 -10 40 4
40 5 1 1 6 -10 13 -11 7 -21 18 -23 25 -1 8 2 11 8 7 6 -4 9 3 6 17 -2 13 -9
22 -16 20 -6 -1 -9 2 -5 8 3 5 1 10 -6 10 -7 0 -9 3 -6 7 4 3 2 12 -5 20 -6 7
-8 16 -5 20 4 3 -1 12 -11 20 -13 10 -13 12 -2 8 11 -4 16 1 16 14 0 14 -4 17
-12 11 -12 -11 -24 -3 -24 14 0 6 5 4 11 -4 9 -12 10 -12 5 3 -3 10 -6 21 -6
23 0 2 -6 4 -13 4 -16 0 -19 30 -4 48 6 8 6 12 -2 12 -6 0 -11 -4 -11 -8 0 -5
-7 -9 -15 -9 -11 0 -12 4 -4 13 7 9 5 15 -9 23 -11 6 -22 7 -26 4 -3 -3 -6 -1
-6 5 0 6 8 16 18 22 15 10 15 10 -3 8 -12 -2 -19 2 -17 10 1 6 -2 12 -8 12 -5
0 -10 7 -10 16 0 18 -23 44 -40 44 -6 0 -13 14 -17 30 -5 28 -19 36 -48 30 -5
-1 -7 2 -3 5 12 12 -11 46 -25 38 -8 -4 -7 -1 1 9 11 14 10 18 -7 27 -14 8
-18 17 -14 29 6 15 5 15 -10 3 -12 -9 -17 -10 -17 -2 0 7 -4 10 -8 7 -5 -3
-16 3 -24 13 -15 17 -14 20 1 37 15 17 15 17 -1 5 -14 -11 -21 -10 -40 4 l-23
16 30 -6 c17 -3 23 -2 14 2 -9 5 -15 15 -14 24 2 10 -4 16 -13 15 -9 0 -17 4
-17 11 0 6 -4 15 -9 20 -5 5 -6 3 -2 -4 4 -8 2 -13 -6 -13 -10 0 -9 -3 2 -11
13 -9 13 -10 0 -6 -8 2 -14 12 -12 21 2 12 -2 16 -14 14 -9 -2 -19 4 -21 12
-4 13 -3 13 6 0 9 -12 11 -13 11 -1 0 8 8 24 18 35 17 21 17 21 -3 5 -19 -16
-58 -23 -50 -9 5 8 -24 34 -49 43 -14 6 -16 10 -7 21 9 10 8 15 -4 20 -8 3
-14 9 -14 13 1 4 -1 16 -6 26 -6 14 -10 15 -23 5 -14 -12 -14 -10 -2 12 13 24
12 24 -5 10 -17 -14 -18 -13 -12 2 5 13 1 16 -21 12 -21 -3 -23 -2 -12 6 11 7
11 10 2 10 -7 0 -10 5 -6 11 4 7 -2 9 -14 7 -12 -2 -28 6 -37 17 -13 16 -16
16 -11 3 3 -12 1 -15 -9 -12 -8 3 -14 9 -13 12 2 20 -3 32 -12 27 -5 -3 -10
-1 -10 6 0 8 -4 8 -16 -1 -8 -8 -14 -9 -13 -4 3 12 -19 64 -26 64 -4 0 -3 -5
1 -12 4 -7 3 -8 -4 -4 -7 4 -12 15 -12 24 0 14 -2 15 -9 2 -6 -8 -7 -19 -4
-25 4 -5 2 -6 -3 -2 -5 5 -10 13 -10 18 -1 5 -2 14 -3 19 0 6 -8 10 -16 10 -8
0 -14 3 -14 8 1 4 1 14 0 22 -1 13 -2 13 -12 0 -8 -11 -12 -12 -16 -2 -8 21
-21 13 -17 -10 l5 -23 -10 23 c-9 19 -28 28 -54 23 -5 -1 -6 9 -2 21 3 13 3
18 -2 12 -13 -18 -59 -10 -55 10 2 9 -2 16 -8 16 -5 0 -10 -4 -10 -9 0 -6 -9
-9 -19 -8 -12 1 -17 6 -13 16 3 9 1 12 -6 7 -7 -4 -13 -2 -13 3 -3 26 -4 30
-11 37 -4 3 -5 -4 -3 -17 4 -23 4 -23 -10 -5 -11 14 -15 16 -15 5 -1 -10 -3
-9 -11 4 -6 9 -15 15 -20 11 -5 -3 -8 0 -7 7 2 6 -3 14 -11 17 -9 3 -11 0 -7
-9 4 -8 -2 -3 -13 10 -12 13 -21 20 -21 16 0 -5 -9 3 -21 16 -16 19 -22 21
-29 9 -5 -8 -6 -18 -3 -24 3 -5 1 -6 -5 -2 -9 5 -9 13 -1 27 8 17 7 23 -8 34
-10 7 -20 11 -23 9 -2 -3 2 -9 9 -14 14 -8 8 -40 -7 -40 -5 0 -21 11 -35 24
-14 13 -28 21 -31 18 -3 -3 -6 -1 -6 4 0 6 -7 19 -16 30 -8 10 -12 12 -8 4 7
-12 4 -12 -16 2 -14 9 -24 23 -24 32 1 9 -3 13 -10 9 -20 -13 -35 -11 -29 4 4
10 8 11 13 3 5 -8 9 -7 13 5 4 9 3 13 -3 10 -6 -3 -10 -2 -10 3 0 12 -32 11
-49 -2 -11 -8 -13 -8 -7 2 4 7 2 12 -4 12 -6 0 -18 7 -26 15 -8 8 -21 12 -29
9 -11 -4 -15 1 -16 17 0 17 -2 20 -7 9 -9 -19 -42 -22 -42 -4 0 8 -7 14 -16
14 -9 0 -12 -5 -8 -12 4 -6 3 -8 -4 -4 -6 3 -13 2 -17 -4 -4 -7 -13 -7 -26 0
-11 6 -16 16 -13 22 4 7 3 8 -5 4 -6 -4 -8 -13 -5 -19 4 -7 4 -9 -1 -5 -4 4
-14 3 -22 -4 -11 -8 -12 -7 -7 6 3 9 2 16 -4 16 -6 0 -13 -6 -15 -12 -4 -10
-6 -10 -6 0 -1 7 -6 10 -11 7 -8 -5 -7 -12 2 -23 9 -12 7 -12 -9 2 -13 10 -20
23 -16 29 4 6 1 7 -6 3 -7 -5 -10 -14 -7 -22 3 -8 0 -11 -10 -7 -7 3 -14 9
-14 13 0 5 -9 8 -19 7 -11 0 -17 -5 -15 -9 3 -5 10 -5 16 -2 7 4 8 2 4 -5 -4
-6 -14 -10 -21 -9 -8 2 -20 -4 -27 -12 -7 -8 -12 -13 -11 -11 2 2 -5 10 -15
17 -12 9 -21 9 -29 2 -9 -7 -13 -7 -13 0 0 6 -11 9 -25 7 -15 -1 -29 4 -35 14
-8 14 -9 14 -10 -1 0 -10 -4 -18 -10 -18 -6 0 -9 4 -8 9 2 5 -1 9 -7 9 -5 0
-9 -5 -7 -11 1 -7 -7 -1 -19 13 -20 23 -21 23 -15 4 5 -15 2 -24 -10 -28 -12
-5 -15 -2 -10 9 3 9 2 14 -3 10 -5 -3 -11 -2 -14 2 -2 5 -2 2 -1 -4 2 -7 -1
-13 -6 -13 -6 0 -10 8 -10 18 0 14 -2 15 -10 2 -8 -12 -10 -12 -10 -1 0 11 -3
11 -15 1 -8 -7 -12 -17 -8 -23 4 -6 -8 -1 -25 12 -18 12 -32 19 -32 15 0 -3
-6 -1 -14 5 -12 10 -14 9 -12 -4 1 -9 9 -21 17 -26 10 -8 7 -8 -10 -4 -18 6
-22 4 -17 -6 4 -8 0 -5 -8 5 -12 15 -16 16 -16 5 0 -8 -10 -16 -22 -16 -17 -2
-19 0 -8 7 8 5 12 12 8 15 -3 3 -13 -1 -22 -10 -9 -9 -16 -13 -16 -8 0 5 -9 9
-20 10 -11 1 -18 -2 -15 -6 2 -5 -8 -7 -23 -5 -14 1 -30 -3 -35 -9 -4 -7 -6 1
-5 18 2 17 8 34 13 38 6 5 4 7 -5 4 -8 -2 -14 -10 -12 -16 1 -8 -2 -9 -10 -5
-21 14 -37 13 -32 -1 3 -7 0 -16 -6 -20 -6 -3 -10 -3 -9 2 4 21 -2 33 -16 33
-8 0 -15 -5 -15 -12 0 -6 -6 -3 -14 8 -13 17 -13 22 1 44 15 23 15 24 0 11
-15 -12 -21 -9 -18 12 2 11 -5 8 -19 -8z m-224 -101 c2 -12 -1 -13 -12 -3 -11
9 -14 9 -14 -1 0 -8 -3 -10 -6 -7 -4 4 -1 13 6 22 14 17 23 13 26 -11z m28 10
c3 -8 2 -12 -4 -9 -6 3 -10 10 -10 16 0 14 7 11 14 -7z m96 -14 c0 -5 -2 -10
-4 -10 -3 0 -8 5 -11 10 -3 6 -1 10 4 10 6 0 11 -4 11 -10z m1260 -30 c0 -5
-2 -10 -4 -10 -3 0 -8 5 -11 10 -3 6 -1 10 4 10 6 0 11 -4 11 -10z m-1623 -45
c0 -8 -4 -12 -9 -9 -5 3 -6 10 -3 15 9 13 12 11 12 -6z m-100 -97 c-3 -8 -6
-5 -6 6 -1 11 2 17 5 13 3 -3 4 -12 1 -19z m-286 -156 c-7 -2 -18 1 -23 6 -8
8 -4 9 13 5 13 -4 18 -8 10 -11z m-105 -84 c4 -6 3 -8 -3 -5 -6 4 -13 0 -17
-8 -3 -8 -10 -15 -16 -15 -5 0 -2 9 7 20 20 23 20 23 29 8z m3057 -203 c-7
-21 -12 -19 -10 4 0 11 5 18 9 15 4 -3 5 -11 1 -19z m187 -191 c0 -2 -7 -4
-15 -4 -8 0 -15 4 -15 10 0 5 7 7 15 4 8 -4 15 -8 15 -10z m178 -239 c-3 -3
-9 2 -12 12 -6 14 -5 15 5 6 7 -7 10 -15 7 -18z m-3837 -882 c13 -17 13 -17
-6 -3 -11 8 -22 16 -24 17 -2 2 0 3 6 3 6 0 17 -8 24 -17z m4129 -183 c0 -5
-2 -10 -4 -10 -3 0 -8 5 -11 10 -3 6 -1 10 4 10 6 0 11 -4 11 -10z m-49 -107
c-12 -20 -14 -14 -5 12 4 9 9 14 11 11 3 -2 0 -13 -6 -23z m9 -63 c0 -5 -4
-10 -10 -10 -5 0 -10 5 -10 10 0 6 5 10 10 10 6 0 10 -4 10 -10z m-119 -724
c-6 -8 -10 -19 -9 -26 2 -7 -2 -14 -8 -17 -7 -2 -11 6 -10 21 0 13 4 22 9 19
4 -2 7 1 7 6 0 6 5 11 11 11 8 0 8 -4 0 -14z m-3591 -2542 c0 -2 -9 0 -20 6
-11 6 -20 13 -20 16 0 2 9 0 20 -6 11 -6 20 -13 20 -16z m6 -33 c0 -9 5 -15
12 -13 6 1 12 -2 12 -7 0 -6 -9 -9 -19 -8 -11 0 -17 5 -15 9 3 5 -2 11 -10 14
-18 7 -13 21 7 21 8 0 14 -7 13 -16z m44 -46 c0 -2 -6 -8 -13 -14 -10 -8 -14
-7 -14 2 0 8 6 14 14 14 7 0 13 -1 13 -2z m55 -165 c-3 -5 -12 -10 -18 -10 -7
0 -6 4 3 10 19 12 23 12 15 0z"/>
<path d="M4437 9629 c7 -7 15 -10 18 -7 3 3 -2 9 -12 12 -14 6 -15 5 -6 -5z"/>
<path d="M4266 9618 c3 -4 9 -8 15 -8 5 0 9 4 9 8 0 5 -7 9 -15 9 -8 0 -12 -4
-9 -9z"/>
<path d="M4566 9618 c3 -5 10 -6 15 -3 13 9 11 12 -6 12 -8 0 -12 -4 -9 -9z"/>
<path d="M4931 9616 c-8 -10 -9 -16 -1 -21 5 -3 10 -5 11 -3 4 18 7 38 4 38
-1 0 -8 -6 -14 -14z"/>
<path d="M5470 9599 c0 -5 5 -7 10 -4 6 3 10 8 10 11 0 2 -4 4 -10 4 -5 0 -10
-5 -10 -11z"/>
<path d="M4000 9515 c-1 -5 -3 -18 -5 -27 -2 -9 4 -19 12 -22 8 -3 11 -1 8 5
-4 5 -1 17 7 26 7 10 8 14 1 10 -6 -4 -14 -1 -16 5 -3 7 -6 9 -7 3z"/>
<path d="M5746 9501 c-4 -5 -2 -12 3 -15 5 -4 12 -2 15 3 4 5 2 12 -3 15 -5 4
-12 2 -15 -3z"/>
<path d="M5831 9426 c2 -2 15 -9 29 -15 24 -11 24 -11 6 3 -16 13 -49 24 -35
12z"/>
<path d="M3836 9358 c3 -4 11 -5 19 -1 21 7 19 12 -4 10 -11 0 -18 -5 -15 -9z"/>
<path d="M6020 9366 c0 -2 8 -10 18 -17 15 -13 16 -12 3 4 -13 16 -21 21 -21
13z"/>
<path d="M3706 9314 c-4 -9 -4 -19 -1 -22 3 -3 5 0 5 7 0 7 5 9 10 6 6 -3 10
-2 10 4 0 18 -18 21 -24 5z"/>
<path d="M6169 9273 c-13 -16 -12 -17 4 -4 9 7 17 15 17 17 0 8 -8 3 -21 -13z"/>
<path d="M6255 9240 c3 -5 8 -10 11 -10 2 0 4 5 4 10 0 6 -5 10 -11 10 -5 0
-7 -4 -4 -10z"/>
<path d="M3385 8880 c3 -5 8 -10 11 -10 2 0 4 5 4 10 0 6 -5 10 -11 10 -5 0
-7 -4 -4 -10z"/>
<path d="M6869 8703 c-13 -16 -12 -17 4 -4 16 13 21 21 13 21 -2 0 -10 -8 -17
-17z"/>
<path d="M6890 8684 c0 -8 5 -12 10 -9 6 4 8 11 5 16 -9 14 -15 11 -15 -7z"/>
<path d="M6976 8642 c-3 -5 1 -9 9 -9 8 0 12 4 9 9 -3 4 -7 8 -9 8 -2 0 -6 -4
-9 -8z"/>
<path d="M6967 8585 c10 -13 21 -25 26 -25 11 0 9 5 -12 28 -25 30 -36 28 -14
-3z"/>
<path d="M7020 8521 c0 -10 19 -25 25 -20 1 2 -3 10 -11 17 -8 7 -14 8 -14 3z"/>
<path d="M3200 8300 c-9 -6 -10 -10 -3 -10 6 0 15 5 18 10 8 12 4 12 -15 0z"/>
<path d="M7210 8279 c0 -5 5 -7 10 -4 6 3 10 8 10 11 0 2 -4 4 -10 4 -5 0 -10
-5 -10 -11z"/>
<path d="M3194 8211 c4 -5 1 -11 -6 -13 -7 -3 -4 -7 7 -12 11 -4 16 -4 12 0
-4 4 -2 13 4 21 9 10 8 13 -5 13 -10 0 -15 -4 -12 -9z"/>
<path d="M7216 8193 c-6 -14 -5 -15 5 -6 7 7 10 15 7 18 -3 3 -9 -2 -12 -12z"/>
<path d="M3186 7987 c3 -10 9 -15 12 -12 3 3 0 11 -7 18 -10 9 -11 8 -5 -6z"/>
<path d="M7305 7760 c3 -5 8 -10 11 -10 2 0 4 5 4 10 0 6 -5 10 -11 10 -5 0
-7 -4 -4 -10z"/>
<path d="M7283 7713 c1 -20 3 -21 18 -7 10 9 23 13 30 8 8 -4 10 -3 5 4 -10
16 -36 15 -36 0 0 -9 -3 -8 -10 2 -7 12 -9 10 -7 -7z"/>
<path d="M7275 7660 c3 -5 8 -10 11 -10 2 0 4 5 4 10 0 6 -5 10 -11 10 -5 0
-7 -4 -4 -10z"/>
<path d="M7310 7460 c0 -5 5 -10 11 -10 5 0 7 5 4 10 -3 6 -8 10 -11 10 -2 0
-4 -4 -4 -10z"/>
<path d="M7220 7201 c0 -6 5 -13 12 -17 6 -4 8 -3 4 4 -3 5 0 13 6 15 8 3 6 6
-4 6 -10 1 -18 -3 -18 -8z"/>
<path d="M7220 7161 c0 -10 19 -25 25 -20 1 2 -3 10 -11 17 -8 7 -14 8 -14 3z"/>
<path d="M3116 5622 c-3 -5 1 -9 9 -9 8 0 12 4 9 9 -3 4 -7 8 -9 8 -2 0 -6 -4
-9 -8z"/>
<path d="M3133 5427 c14 -11 15 -16 5 -20 -9 -4 -9 -6 -1 -6 23 -2 23 18 1 29
-21 10 -22 10 -5 -3z"/>
<path d="M3130 5162 c0 -4 9 -8 20 -9 11 -1 18 2 15 8 -7 11 -35 12 -35 1z"/>
<path d="M3263 4473 c4 -6 2 -13 -5 -15 -8 -3 -6 -6 4 -10 17 -7 19 15 3 29
-4 4 -5 3 -2 -4z"/>
<path d="M3404 4153 c2 -10 6 -17 10 -16 15 3 16 11 2 22 -12 10 -14 9 -12 -6z"/>
<path d="M3430 4125 c0 -5 5 -17 10 -25 5 -8 10 -10 10 -5 0 6 -5 17 -10 25
-5 8 -10 11 -10 5z"/>
<path d="M3573 3843 c0 -7 4 -13 8 -13 4 0 9 6 12 13 3 8 0 14 -7 14 -7 0 -13
-6 -13 -14z"/>
<path d="M7550 2921 c0 -6 4 -13 10 -16 6 -3 7 1 4 9 -7 18 -14 21 -14 7z"/>
<path d="M8470 2390 c0 -5 5 -10 11 -10 5 0 7 5 4 10 -3 6 -8 10 -11 10 -2 0
-4 -4 -4 -10z"/>
</g>
</svg>
